<svg width="20" height="20" viewBox="0 0 20 20" fill="none" xmlns="http://www.w3.org/2000/svg">
<g clip-path="url(#clip0)">
<path d="M18.1458 18.4168H14.9583C14.522 18.4168 14.1669 18.7719 14.1669 19.2082C14.1669 19.6449 14.522 20 14.9583 20H18.1458C18.5825 20 18.9376 19.6449 18.9376 19.2082C18.9376 18.7719 18.5825 18.4168 18.1458 18.4168Z" fill="#C1CEEA"/>
<path d="M18.8541 15.5832H13.8955C13.4592 15.5832 13.1041 15.9383 13.1041 16.375C13.1041 16.8118 13.4592 17.1668 13.8955 17.1668H18.8541C19.2904 17.1668 19.6455 16.8118 19.6455 16.375C19.6455 15.9383 19.2904 15.5832 18.8541 15.5832Z" fill="#C1CEEA"/>
<path d="M19.0313 12.3957H13.7188C13.1849 12.3957 12.7501 12.8305 12.7501 13.3645C12.7501 13.8988 13.1849 14.3332 13.7188 14.3332H19.0313C19.5657 14.3332 20.0001 13.8988 20.0001 13.3645C20.0001 12.8305 19.5657 12.3957 19.0313 12.3957Z" fill="#C1CEEA"/>
<path d="M14.7812 11.1457H18.6769C19.2112 11.1457 19.6456 10.7113 19.6456 10.177C19.6456 9.64296 19.2112 9.20819 18.6769 9.20819H14.7812C14.2472 9.20819 13.8124 9.64296 13.8124 10.177C13.8124 10.7113 14.2472 11.1457 14.7812 11.1457Z" fill="#C1CEEA"/>
<path d="M12.2097 14.9895C11.0718 13.9376 11.3451 12.0629 12.7316 11.3778C12.8067 11.3407 12.8374 11.2483 12.7996 11.1736C12.48 10.5413 12.483 9.78994 12.8106 9.15865C12.8482 9.08615 12.8259 8.99627 12.7557 8.95443C12.0875 8.55615 11.7068 7.74158 11.9321 6.91478C12.3508 5.38041 12.5629 3.79642 12.5625 2.2058V1.49998C12.5621 0.676109 11.8945 0.00501516 11.0714 1.51594e-05C10.6332 -0.00268015 10.2708 0.35439 10.2707 0.792554C10.2704 3.49173 9.25679 6.06548 7.41682 8.04021L5.85315 9.71795C5.73479 9.84451 5.56917 9.91677 5.39573 9.91677H4.09104C3.98319 9.91677 3.89573 10.0042 3.89573 10.1121V18.4074C3.89573 18.5095 3.97432 18.594 4.07604 18.6019C4.95893 18.6705 5.82038 18.9334 6.59143 19.3738C7.30784 19.7836 8.12308 20 8.94847 20H12.8575C12.9617 20 13.0342 19.8991 13.004 19.7994C12.8674 19.3487 12.8899 18.8554 13.0796 18.4105C13.1113 18.336 13.0823 18.2485 13.0093 18.2134C11.8785 17.6697 11.4968 16.224 12.2305 15.1947C12.2763 15.1304 12.2677 15.0432 12.2097 14.9895Z" fill="#C1CEEA"/>
<path d="M0.195312 20H2.45039C2.55824 20 2.6457 19.9125 2.6457 19.8047V8.69532C2.6457 8.58747 2.55824 8.50001 2.45039 8.50001H0.195312C0.0874609 8.50001 0 8.58747 0 8.69532V19.8047C0 19.9125 0.0874609 20 0.195312 20Z" fill="#C1CEEA"/>
</g>
<defs>
<clipPath id="clip0">
<rect width="20" height="20" fill="white"/>
</clipPath>
</defs>
</svg>
