<svg width="20" height="20" viewBox="0 0 20 20" fill="none" xmlns="http://www.w3.org/2000/svg">
<path d="M1.25 10.6129V18.1129C1.25 18.8029 1.81125 19.3629 2.5 19.3629H8.75V10.6129H1.25Z" fill="#C1CEEA"/>
<path d="M18.75 5.61296H14.795C15.0788 5.41921 15.3225 5.22671 15.4925 5.05421C16.5012 4.04046 16.5012 2.39046 15.4925 1.37671C14.5125 0.389212 12.805 0.391712 11.8263 1.37671C11.2838 1.92046 9.84625 4.13421 10.045 5.61296H9.955C10.1525 4.13421 8.715 1.92046 8.17375 1.37671C7.19375 0.391712 5.48625 0.391712 4.5075 1.37671C3.5 2.39046 3.5 4.04046 4.50625 5.05421C4.6775 5.22671 4.92125 5.41921 5.205 5.61296H1.25C0.56125 5.61296 0 6.17421 0 6.86296V8.73796C0 9.08296 0.28 9.36296 0.625 9.36296H8.75V6.86296H11.25V9.36296H19.375C19.72 9.36296 20 9.08296 20 8.73796V6.86296C20 6.17421 19.44 5.61296 18.75 5.61296ZM8.67625 5.57171C8.67625 5.57171 8.62375 5.61296 8.445 5.61296C7.58125 5.61296 5.9325 4.71546 5.39375 4.17296C4.87 3.64546 4.87 2.78546 5.39375 2.25796C5.6475 2.00296 5.98375 1.86296 6.34125 1.86296C6.6975 1.86296 7.03375 2.00296 7.2875 2.25796C8.13 3.10546 8.9675 5.27046 8.67625 5.57171ZM11.5538 5.61296C11.3763 5.61296 11.3237 5.57171 11.3237 5.57171C11.0325 5.27046 11.87 3.10546 12.7125 2.25796C13.2163 1.74921 14.0975 1.74671 14.6063 2.25796C15.1313 2.78546 15.1313 3.64546 14.6063 4.17296C14.0675 4.71546 12.4187 5.61296 11.5538 5.61296Z" fill="#C1CEEA"/>
<path d="M11.25 10.6129V19.3629H17.5C18.19 19.3629 18.75 18.8029 18.75 18.1129V10.6129H11.25Z" fill="#C1CEEA"/>
</svg>
