<svg width="20" height="20" viewBox="0 0 20 20" fill="none" xmlns="http://www.w3.org/2000/svg">
<g clip-path="url(#clip0)">
<path d="M16.6314 3.38219C16.6282 3.38219 16.6249 3.38219 16.6217 3.38219C16.3509 3.38219 16.0876 3.41434 15.8353 3.47457C16.0653 4.4759 16.0381 5.53777 15.7271 6.56031C15.6502 6.81309 15.3516 7.07031 14.996 6.95035C14.6893 6.84695 14.5118 6.52887 14.6059 6.21926C15.1248 4.51312 14.6644 2.67047 13.4043 1.41035C12.495 0.500859 11.286 0 10 0C8.71402 0 7.50504 0.500859 6.59578 1.41031C5.33563 2.67051 4.8752 4.51316 5.3941 6.21926C5.48828 6.52887 5.31363 6.85621 5.00406 6.95035C4.69434 7.04445 4.36711 6.86984 4.27297 6.56031C3.96195 5.53777 3.93473 4.4759 4.16473 3.47457C3.91238 3.4143 3.64918 3.38215 3.37836 3.38215C3.37512 3.38215 3.37188 3.38215 3.36863 3.38215C1.45223 3.38762 -0.0918747 5.01887 0.00425816 6.93281C0.0939457 8.71859 1.57027 10.139 3.37832 10.139L4.08398 17.2716H15.916L16.6216 10.139C18.4297 10.139 19.9061 8.71863 19.9957 6.93281C20.0919 5.01887 18.5478 3.38762 16.6314 3.38219ZM7.36852 15.0126C7.33887 15.017 7.30938 15.0192 7.28031 15.0192C6.99535 15.0192 6.74551 14.811 6.70168 14.5207L6.35086 12.1964C6.30258 11.8764 6.52277 11.5778 6.84277 11.5295C7.16285 11.4812 7.46133 11.7014 7.50961 12.0214L7.86043 14.3457C7.90871 14.6657 7.68848 14.9643 7.36852 15.0126ZM10.5859 14.4332C10.5859 14.7568 10.3236 15.0191 10 15.0191C9.67641 15.0191 9.41406 14.7568 9.41406 14.4332V12.1089C9.41406 11.7853 9.67641 11.523 10 11.523C10.3236 11.523 10.5859 11.7853 10.5859 12.1089V14.4332ZM13.6492 12.1964L13.2984 14.5207C13.2545 14.811 13.0046 15.0193 12.7197 15.0193C12.6906 15.0193 12.6612 15.0171 12.6315 15.0126C12.3116 14.9643 12.0913 14.6658 12.1396 14.3458L12.4904 12.0215C12.5387 11.7016 12.8371 11.4814 13.1573 11.5296C13.4773 11.5779 13.6975 11.8764 13.6492 12.1964Z" fill="#C1CEEA"/>
<path d="M4.19993 18.4434L4.27032 19.1548C4.31778 19.6345 4.72125 20 5.20325 20H14.7967C15.2787 20 15.6822 19.6345 15.7296 19.1548L15.8 18.4434H4.19993Z" fill="#C1CEEA"/>
</g>
<defs>
<clipPath id="clip0">
<rect width="20" height="20" fill="white"/>
</clipPath>
</defs>
</svg>
