<svg width="20" height="20" viewBox="0 0 20 20" fill="none" xmlns="http://www.w3.org/2000/svg">
<path d="M10 0C4.48583 0 0 4.48583 0 10C0 15.5142 4.48583 20 10 20C15.5142 20 20 15.5142 20 10C20 4.48583 15.5142 0 10 0ZM10 15.8333C9.54 15.8333 9.16667 15.46 9.16667 15C9.16667 14.54 9.54 14.1667 10 14.1667C10.46 14.1667 10.8333 14.54 10.8333 15C10.8333 15.46 10.46 15.8333 10 15.8333ZM11.3192 10.535C11.0242 10.6708 10.8333 10.9683 10.8333 11.2925V11.6667C10.8333 12.1267 10.4608 12.5 10 12.5C9.53917 12.5 9.16667 12.1267 9.16667 11.6667V11.2925C9.16667 10.32 9.73833 9.42833 10.6208 9.02083C11.47 8.63 12.0833 7.5925 12.0833 7.08333C12.0833 5.935 11.1492 5 10 5C8.85083 5 7.91667 5.935 7.91667 7.08333C7.91667 7.54333 7.54417 7.91667 7.08333 7.91667C6.6225 7.91667 6.25 7.54333 6.25 7.08333C6.25 5.01583 7.9325 3.33333 10 3.33333C12.0675 3.33333 13.75 5.01583 13.75 7.08333C13.75 8.20917 12.7733 9.86417 11.3192 10.535Z" fill="#C1CEEA"/>
</svg>
