<svg width="20" height="20" viewBox="0 0 20 20" fill="none" xmlns="http://www.w3.org/2000/svg">
<path d="M19.9658 7.70659C19.8896 7.47316 19.6954 7.29706 19.4548 7.24321L13.6407 5.94188L10.6007 0.840476C10.4748 0.629388 10.2466 0.5 9.99998 0.5C9.75339 0.5 9.52511 0.629434 9.3993 0.840476L6.35922 5.94192L0.545161 7.24326C0.304583 7.29711 0.110379 7.47321 0.0342058 7.70663C-0.0420138 7.94001 0.0111119 8.19615 0.173934 8.38045L4.10909 12.8346L3.55586 18.7403C3.533 18.9847 3.64125 19.223 3.84076 19.3672C4.04018 19.5114 4.30129 19.5404 4.52781 19.4432L9.99998 17.0946L15.4721 19.4432C15.5609 19.4813 15.655 19.5 15.7486 19.5C15.8938 19.5 16.0379 19.4549 16.1591 19.3672C16.3587 19.223 16.4669 18.9847 16.444 18.7403L15.8908 12.8346L19.826 8.38045C19.9889 8.19615 20.042 7.94001 19.9658 7.70659ZM15.92 9.64365L13.7209 12.1328L14.03 15.4332C14.0529 15.6776 13.9446 15.9159 13.7451 16.0601C13.6239 16.1478 13.4798 16.1929 13.3346 16.1929C13.2409 16.1929 13.1469 16.1742 13.0581 16.1361L9.99998 14.8235L6.94188 16.1361C6.71541 16.2332 6.45421 16.2043 6.25483 16.0601C6.05532 15.9158 5.94707 15.6776 5.96993 15.4332L6.27909 12.1328L4.07994 9.6436C3.91712 9.4593 3.864 9.20321 3.94022 8.96978C4.01644 8.73636 4.21064 8.56026 4.45117 8.50641L7.70035 7.77911L9.3993 4.92819C9.52511 4.7171 9.75339 4.58766 9.99998 4.58766C10.2466 4.58766 10.4748 4.7171 10.6007 4.92819L12.2996 7.77911L15.5488 8.50641C15.7894 8.56026 15.9836 8.73636 16.0597 8.96978C16.136 9.20326 16.0828 9.45939 15.92 9.64365Z" fill="#C1CEEA"/>
<path d="M11.2522 8.7464L10.0003 6.64566L8.74842 8.7464C8.65036 8.91096 8.48852 9.02798 8.30097 9.06996L5.90674 9.60586L7.52723 11.44C7.65411 11.5837 7.71599 11.7731 7.69816 11.9636L7.47033 14.3956L9.72377 13.4284C9.81205 13.3905 9.90615 13.3716 10.0003 13.3716C10.0944 13.3716 10.1886 13.3905 10.2768 13.4284L12.5303 14.3956L12.3025 11.9636C12.2846 11.7731 12.3465 11.5837 12.4734 11.44L14.0939 9.60586L11.6997 9.06996C11.5121 9.02798 11.3503 8.91096 11.2522 8.7464Z" fill="#C1CEEA"/>
</svg>
