<svg width="20" height="20" viewBox="0 0 20 20" fill="none" xmlns="http://www.w3.org/2000/svg">
<path d="M10 0C4.48583 0 0 4.48583 0 10C0 15.5142 4.48583 20 10 20C15.5142 20 20 15.5142 20 10C20 4.48583 15.5142 0 10 0ZM10 15.8333C9.54 15.8333 9.16667 15.46 9.16667 15C9.16667 14.54 9.54 14.1667 10 14.1667C10.46 14.1667 10.8333 14.54 10.8333 15C10.8333 15.46 10.46 15.8333 10 15.8333ZM10.8333 11.6667C10.8333 12.1267 10.46 12.5 10 12.5C9.54 12.5 9.16667 12.1267 9.16667 11.6667V5C9.16667 4.54 9.54 4.16667 10 4.16667C10.46 4.16667 10.8333 4.54 10.8333 5V11.6667Z" fill="#C1CEEA"/>
</svg>
