<svg width="20" height="20" viewBox="0 0 20 20" fill="none" xmlns="http://www.w3.org/2000/svg">
<g clip-path="url(#clip0)">
<path d="M0.513086 19.4861C0.513086 19.4855 0.513672 19.4861 0.513086 19.4861C1.19859 20.1705 2.31539 20.1712 2.99934 19.4861L5.00816 17.4774L2.5225 14.9917L0.513672 17.0005C-0.171289 17.6854 -0.171289 18.8001 0.513086 19.4861Z" fill="#C1CEEA"/>
<path d="M12.3828 3.51562C10.1214 3.51562 8.28125 5.35582 8.28125 7.61719C8.28125 9.87856 10.1214 11.7188 12.3828 11.7188C14.6442 11.7188 16.4844 9.87856 16.4844 7.61719C16.4844 5.35582 14.6442 3.51562 12.3828 3.51562ZM15.1408 6.85957L12.2111 9.78926C12.0967 9.90371 11.9468 9.96094 11.7969 9.96094C11.647 9.96094 11.497 9.90371 11.3826 9.78926L9.62481 8.03144C9.39594 7.80258 9.39594 7.43176 9.62481 7.20289C9.85368 6.97402 10.2245 6.97402 10.4534 7.20289L11.7969 8.54645L14.3123 6.03102C14.5412 5.80215 14.912 5.80215 15.1409 6.03102C15.3697 6.25988 15.3697 6.6307 15.1408 6.85957Z" fill="#C1CEEA"/>
<path d="M12.3828 0C8.17592 0 4.76557 3.41035 4.76557 7.61719C4.76557 9.50961 5.45987 11.2371 6.60213 12.5693L5.85362 13.3178C5.20143 13.01 4.40463 13.1096 3.86608 13.6482L3.35108 14.1632L5.83674 16.6489L6.35174 16.1339C6.89034 15.5953 6.98998 14.7985 6.68217 14.1463L7.43069 13.3978C8.76284 14.5401 10.4903 15.2344 12.3828 15.2344C16.5896 15.2344 19.9999 11.824 19.9999 7.61719C19.9999 3.41035 16.5896 0 12.3828 0ZM12.3828 12.8906C9.4703 12.8906 7.10932 10.5296 7.10932 7.61719C7.10932 4.70473 9.4703 2.34375 12.3828 2.34375C15.2952 2.34375 17.6562 4.70473 17.6562 7.61719C17.6562 10.5296 15.2952 12.8906 12.3828 12.8906Z" fill="#C1CEEA"/>
</g>
<defs>
<clipPath id="clip0">
<rect width="20" height="20" fill="white"/>
</clipPath>
</defs>
</svg>
