<svg width="20" height="20" viewBox="0 0 20 20" fill="none" xmlns="http://www.w3.org/2000/svg">
<path d="M16.7773 2.34375C16.2919 2.34375 15.8984 2.73727 15.8984 3.22266C15.8984 4.89227 15.8984 7.8125 15.8984 7.65625C15.8984 7.97989 15.6361 8.24219 15.3125 8.24219C14.9888 8.24219 14.7265 7.97989 14.7265 7.65625C14.7265 7.50793 14.7265 1.91483 14.7265 2.05078C14.7265 1.5654 14.333 1.17188 13.8476 1.17188C13.3623 1.17188 12.9687 1.5654 12.9687 2.05078C12.9687 2.18445 12.9687 7.87689 12.9687 7.65625C12.9687 7.97989 12.7064 8.24219 12.3828 8.24219C12.0592 8.24219 11.7969 7.97989 11.7969 7.65625C11.7969 7.44095 11.7969 0.611877 11.7969 0.878906C11.7969 0.393524 11.4033 0 10.9179 0C10.4326 0 10.039 0.393524 10.039 0.878906C10.039 1.32874 10.039 7.94998 10.039 7.65625C10.039 7.97989 9.77674 8.24219 9.4531 8.24219C9.12946 8.24219 8.86717 7.97989 8.86717 7.65625C8.86717 7.50793 8.86717 1.91483 8.86717 2.05078C8.86717 1.5654 8.47364 1.17188 7.98826 1.17188C7.50288 1.17188 7.10935 1.5654 7.10935 2.05078C7.10935 2.22641 7.10935 9.42688 7.10935 9.27216L7.8372 10H8.86717C11.1285 10 12.9687 11.8402 12.9687 14.1016C12.9687 14.4254 12.7067 14.6875 12.3828 14.6875C12.059 14.6875 11.7969 14.4254 11.7969 14.1016C11.7969 12.4863 10.4825 11.1719 8.86717 11.1719H7.59458C7.43925 11.1719 7.29032 11.1102 7.18031 11.0002L5.26899 9.0889C4.54359 8.36349 3.33479 8.2695 2.60389 8.98941C2.59901 8.99414 2.59428 8.99902 2.5894 9.00391C2.37837 9.21478 2.36677 9.55475 2.5543 9.78912L7.86741 16.066C8.13459 16.3815 8.28123 16.7818 8.28123 17.1953V19.4141C8.28123 19.7377 8.54353 20 8.86717 20H15.8984C16.2221 20 16.4844 19.7377 16.4844 19.4141V17.9453C16.4844 17.2064 16.6841 16.4871 17.0265 15.8325C17.4426 15.0369 17.6562 14.153 17.6562 13.2578C17.6562 9.64264 17.6562 6.8277 17.6562 3.22266C17.6562 2.73727 17.2627 2.34375 16.7773 2.34375Z" fill="#C1CEEA"/>
</svg>
