<svg width="20" height="20" viewBox="0 0 20 20" fill="none" xmlns="http://www.w3.org/2000/svg">
<path d="M11.1202 2L16 6.80751V16.4225C16 16.8482 15.8348 17.2113 15.5044 17.5117C15.1994 17.8372 14.8309 18 14.3988 18H4.60117C4.16911 18 3.78788 17.8372 3.45748 17.5117C3.15249 17.2113 3 16.8482 3 16.4225V3.57746C3 3.1518 3.15249 2.78873 3.45748 2.48826C3.78788 2.16275 4.18182 2 4.6393 2H11.1202ZM12.7595 14.8075V13.1925H6.24047V14.8075H12.7595ZM12.7595 11.615V10H6.24047V11.615H12.7595ZM10.3196 7.59624H14.7801L10.3196 3.20188V7.59624Z" fill="#C1CEEA"/>
</svg>
