<svg width="20" height="20" viewBox="0 0 20 20" fill="none" xmlns="http://www.w3.org/2000/svg">
<g clip-path="url(#clip0)">
<path d="M5.27344 0C4.94957 0 4.6875 0.26207 4.6875 0.585938V4.6875H3.51562V0.585938C3.51562 0.26207 3.25355 0 2.92969 0C2.60582 0 2.34375 0.26207 2.34375 0.585938V4.6875H1.17188V0.585938C1.17188 0.26207 0.909805 0 0.585938 0C0.26207 0 0 0.26207 0 0.585938C0 3.19074 0 3.83891 0 6.44531C0 7.41461 0.788516 8.24219 1.75781 8.24219H4.10156C5.07086 8.24219 5.85938 7.41461 5.85938 6.44531C5.85938 3.83801 5.85938 3.19219 5.85938 0.585938C5.85938 0.26207 5.5973 0 5.27344 0Z" fill="#C1CEEA"/>
<path d="M14.1406 12.3438V6.6925L14.1409 6.68766C13.1737 5.47852 11.6653 4.6875 10 4.6875C8.93406 4.6875 7.88562 5.00301 7.03125 5.57762V6.44531C7.03125 7.64359 6.30625 8.71235 5.27344 9.16574V12.3652C6.14398 14.0823 7.94664 15.2734 10 15.2734C11.7577 15.2734 13.3461 14.4007 14.3048 13.0748C14.2018 12.8515 14.1406 12.6053 14.1406 12.3438Z" fill="#C1CEEA"/>
<path d="M15.8984 14.1016C15.6262 14.1016 15.3714 14.0342 15.1412 13.9232C13.9617 15.4536 12.0771 16.4454 10 16.4454C8.1525 16.4454 6.44969 15.6597 5.27344 14.4101V17.4647C6.63113 18.3237 8.27457 18.8282 10 18.8282C12.5503 18.8282 14.8788 17.6963 16.4844 15.9612V14.1016H15.8984Z" fill="#C1CEEA"/>
<path d="M10 1.17188C8.97109 1.17188 7.94887 1.35777 7.03125 1.68266V4.21844C7.92305 3.76223 8.95895 3.51562 10 3.51562C11.6329 3.51562 13.1605 4.13098 14.2975 5.13555C14.4495 4.30813 14.7052 3.50898 15.0768 2.76547C13.6496 1.76434 11.8757 1.17188 10 1.17188Z" fill="#C1CEEA"/>
<path d="M19.6904 0.0692579C19.501 -0.032578 19.2693 -0.0211327 19.089 0.0984376C16.4167 1.88 15.3125 4.18266 15.3125 6.69254V12.3438C15.3125 12.6677 15.5746 12.9297 15.8984 12.9297H17.6562V18.8282C17.6562 19.4753 18.1809 20 18.8281 20C19.4754 20 20 19.4753 20 18.8282C20 9.45824 20 9.77981 20 0.585977C20 0.369688 19.881 0.171133 19.6904 0.0692579Z" fill="#C1CEEA"/>
<path d="M1.75781 9.41406V18.8281C1.75781 19.4753 2.28246 20 2.92969 20C3.57691 20 4.10156 19.4753 4.10156 18.8281V9.41406H1.75781Z" fill="#C1CEEA"/>
</g>
<defs>
<clipPath id="clip0">
<rect width="20" height="20" fill="white"/>
</clipPath>
</defs>
</svg>
