<svg width="20" height="20" viewBox="0 0 20 20" fill="none" xmlns="http://www.w3.org/2000/svg">
<g clip-path="url(#clip0)">
<path d="M10.1026 15.8012C10.7301 16.4295 10.7262 17.4402 10.1026 18.0639L8.6915 19.475C8.0731 20.0949 7.05664 20.1028 6.42884 19.475L0.524794 13.5709C-0.0987686 12.947 -0.0987686 11.9318 0.524794 11.3083L1.93591 9.89714C2.55951 9.2735 3.57029 9.26966 4.19857 9.89714L10.1026 15.8012ZM0.76266 15.1086C0.618308 14.9642 0.378323 14.9908 0.266889 15.1618C-0.175764 15.8412 -0.0392521 16.6603 0.467997 17.1675L2.83226 19.5318C3.33511 20.0347 4.15354 20.1793 4.83774 19.7332C5.00884 19.6216 5.03568 19.3817 4.89125 19.2372L0.76266 15.1086ZM11.073 6.74813C10.823 6.49855 10.4178 6.49855 10.1678 6.74813L6.74802 10.1679C6.49804 10.4179 6.49804 10.8231 6.74802 11.0731L8.92669 13.2517C9.17583 13.5009 9.58101 13.5018 9.83184 13.2517L13.2516 9.83195C13.5016 9.58196 13.5016 9.17679 13.2516 8.9268L11.073 6.74813ZM19.2378 4.89056C19.3822 5.03504 19.6222 5.00812 19.7338 4.83693C20.1796 4.15257 20.0332 3.33394 19.5317 2.83237L17.1674 0.468111C16.6614 -0.0375384 15.8429 -0.17689 15.1626 0.266163C14.9915 0.377597 14.9648 0.617622 15.1092 0.762014L19.2378 4.89056ZM13.5708 0.524908C12.9468 -0.0986547 11.9317 -0.0990547 11.3081 0.524908L9.89703 1.93602C9.27343 2.55959 9.26955 3.57036 9.89703 4.19869L15.8011 10.1027C16.43 10.7308 17.4408 10.7257 18.0637 10.1027L19.4749 8.69162C20.0984 8.06805 20.0984 7.05292 19.4749 6.42895L13.5708 0.524908Z" fill="#C1CEEA"/>
</g>
<defs>
<clipPath id="clip0">
<rect width="20" height="20" fill="white"/>
</clipPath>
</defs>
</svg>
