<svg width="20" height="20" fill="none" xmlns="http://www.w3.org/2000/svg"><g clip-path="url(#clip0)" fill="#C1CEEA"><path d="M18.146 18.417h-3.188a.792.792 0 000 1.583h3.188a.793.793 0 000-1.583zm.708-2.834h-4.958a.792.792 0 000 1.584h4.958a.792.792 0 000-1.584zm.177-3.187H13.72a.97.97 0 000 1.938h5.312a.97.97 0 000-1.938zm-4.25-1.25h3.896a.97.97 0 000-1.938H14.78a.97.97 0 000 1.938z"/><path d="M12.21 14.99c-1.138-1.052-.865-2.927.522-3.612a.152.152 0 00.068-.204 2.212 2.212 0 01.01-2.015.154.154 0 00-.054-.205 1.816 1.816 0 01-.824-2.04 17.87 17.87 0 00.63-4.708V1.5c0-.824-.667-1.495-1.49-1.5a.797.797 0 00-.801.793A10.6 10.6 0 017.417 8.04L5.853 9.718a.627.627 0 01-.457.199H4.09a.195.195 0 00-.195.195v8.295c0 .102.078.187.18.195a6.017 6.017 0 012.515.772c.717.41 1.532.626 2.357.626h3.91c.104 0 .176-.1.146-.2a2.039 2.039 0 01.076-1.39.151.151 0 00-.07-.197 2.043 2.043 0 01-.78-3.018.155.155 0 00-.02-.206zM.195 20H2.45a.195.195 0 00.196-.195V8.695A.195.195 0 002.45 8.5H.195A.195.195 0 000 8.695v11.11c0 .108.087.195.195.195z"/></g><defs><clipPath id="clip0"><path fill="#fff" d="M0 0h20v20H0z"/></clipPath></defs></svg>