<svg width="20" height="20" fill="none" xmlns="http://www.w3.org/2000/svg"><path d="M1.25 10.613v7.5c0 .69.561 1.25 1.25 1.25h6.25v-8.75h-7.5zm17.5-5h-3.955c.284-.194.527-.386.697-.559a2.613 2.613 0 000-3.677c-.98-.988-2.687-.985-3.666 0-.542.543-1.98 2.757-1.781 4.236h-.09c.197-1.479-1.24-3.693-1.781-4.236-.98-.985-2.688-.985-3.666 0a2.616 2.616 0 00-.002 3.677c.171.173.415.365.699.559H1.25c-.689 0-1.25.561-1.25 1.25v1.875c0 .345.28.625.625.625H8.75v-2.5h2.5v2.5h8.125c.345 0 .625-.28.625-.625V6.863c0-.689-.56-1.25-1.25-1.25zM8.676 5.572s-.052.041-.231.041c-.864 0-2.513-.898-3.051-1.44a1.363 1.363 0 010-1.915c.253-.255.59-.395.947-.395.356 0 .693.14.946.395.843.847 1.68 3.012 1.39 3.314zm2.878.041c-.178 0-.23-.041-.23-.041-.291-.302.546-2.467 1.389-3.314.503-.509 1.385-.511 1.893 0a1.361 1.361 0 010 1.915c-.538.542-2.187 1.44-3.052 1.44zm-.304 5v8.75h6.25c.69 0 1.25-.56 1.25-1.25v-7.5h-7.5z" fill="#C1CEEA"/></svg>