<svg width="20" height="20" fill="none" xmlns="http://www.w3.org/2000/svg"><g clip-path="url(#clip0)" fill="#C1CEEA"><path d="M16.631 3.382h-.01c-.27 0-.533.032-.786.093a5.986 5.986 0 01-.108 3.085c-.077.253-.375.51-.731.39a.592.592 0 01-.39-.73 4.81 4.81 0 00-1.202-4.81A4.782 4.782 0 0010 0C8.714 0 7.505.5 6.596 1.41a4.81 4.81 0 00-1.202 4.81.586.586 0 11-1.121.34 5.986 5.986 0 01-.108-3.085 3.381 3.381 0 00-.787-.093h-.01C1.453 3.388-.091 5.02.005 6.932a3.379 3.379 0 003.374 3.207l.706 7.133h11.832l.706-7.133a3.378 3.378 0 003.374-3.206c.096-1.914-1.448-3.545-3.365-3.55zM7.37 15.012a.586.586 0 01-.667-.492l-.351-2.324a.586.586 0 011.159-.175l.35 2.325a.586.586 0 01-.491.667zm3.217-.579a.586.586 0 11-1.172 0V12.11a.586.586 0 011.172 0v2.324zm3.063-2.237l-.35 2.325a.586.586 0 01-1.16-.175l.351-2.325a.586.586 0 011.16.175zM4.2 18.443l.07.712c.048.48.451.845.933.845h9.594a.937.937 0 00.933-.845l.07-.712H4.2z"/></g><defs><clipPath id="clip0"><path fill="#fff" d="M0 0h20v20H0z"/></clipPath></defs></svg>