<svg width="20" height="20" fill="none" xmlns="http://www.w3.org/2000/svg"><path d="M19.966 7.707a.697.697 0 00-.511-.464L13.64 5.942 10.6.84a.7.7 0 00-1.202 0L6.36 5.942.545 7.243A.693.693 0 00.174 8.38l3.935 4.455-.553 5.905a.694.694 0 00.285.627c.2.144.46.173.687.076L10 17.095l5.472 2.348a.7.7 0 00.687-.076.693.693 0 00.285-.627l-.553-5.905 3.935-4.455a.693.693 0 00.14-.673zM15.92 9.644l-2.2 2.489.31 3.3a.694.694 0 01-.695.76.7.7 0 01-.277-.057L10 14.823l-3.058 1.313a.701.701 0 01-.687-.076.694.694 0 01-.285-.627l.31-3.3-2.2-2.49a.693.693 0 01.371-1.137l3.25-.727 1.698-2.85a.7.7 0 011.202 0l1.699 2.85 3.249.727a.692.692 0 01.371 1.137z" fill="#C1CEEA"/><path d="M11.252 8.746L10 6.646l-1.252 2.1a.698.698 0 01-.447.324l-2.394.536 1.62 1.834a.693.693 0 01.171.524l-.228 2.432 2.254-.968a.7.7 0 01.553 0l2.253.968-.227-2.432a.693.693 0 01.17-.524l1.62-1.834L11.7 9.07a.698.698 0 01-.448-.324z" fill="#C1CEEA"/></svg>