<svg width="20" height="20" fill="none" xmlns="http://www.w3.org/2000/svg"><g clip-path="url(#clip0)"><path d="M19.664 9.104l-3.03-3.03V2.571a1.146 1.146 0 00-2.293 0V3.78l-2.257-2.257C10.968.408 9.028.41 7.914 1.526L.336 9.104a1.147 1.147 0 001.621 1.622l7.579-7.58a.677.677 0 01.927 0l7.58 7.58a1.144 1.144 0 001.621 0 1.147 1.147 0 000-1.622z" fill="#97A7D1"/><path d="M10.398 5.322a.563.563 0 00-.796 0l-6.667 6.665a.564.564 0 00-.164.399v4.86c0 1.141.924 2.066 2.065 2.066h3.3V14.2h3.727v5.112h3.3c1.14 0 2.066-.925 2.066-2.066v-4.86a.57.57 0 00-.165-.4l-6.666-6.664z" fill="#C1CEEA"/></g><defs><clipPath id="clip0"><path fill="#fff" d="M0 0h20v20H0z"/></clipPath></defs></svg>