<svg width="20" height="20" fill="none" xmlns="http://www.w3.org/2000/svg"><g clip-path="url(#clip0)" fill="#C1CEEA"><path d="M.513 19.486a1.761 1.761 0 002.486 0l2.01-2.009-2.487-2.485L.514 17a1.76 1.76 0 000 2.486zm11.87-15.97A4.106 4.106 0 008.28 7.617a4.107 4.107 0 004.102 4.102 4.107 4.107 0 004.101-4.102 4.107 4.107 0 00-4.101-4.101zM15.14 6.86l-2.93 2.93a.584.584 0 01-.828 0L9.625 8.03a.586.586 0 11.828-.828l1.344 1.343 2.515-2.515a.586.586 0 11.829.829z"/><path d="M12.383 0a7.617 7.617 0 00-7.617 7.617 7.58 7.58 0 001.836 4.952l-.748.749a1.745 1.745 0 00-1.988.33l-.515.515 2.486 2.486.515-.515a1.745 1.745 0 00.33-1.988l.749-.748a7.58 7.58 0 004.952 1.836 7.617 7.617 0 000-15.234zm0 12.89a5.273 5.273 0 110-10.546 5.273 5.273 0 010 10.547z"/></g><defs><clipPath id="clip0"><path fill="#fff" d="M0 0h20v20H0z"/></clipPath></defs></svg>