<svg width="20" height="20" fill="none" xmlns="http://www.w3.org/2000/svg"><path d="M16.777 2.344a.879.879 0 00-.879.879v4.433a.586.586 0 11-1.171 0V2.051a.879.879 0 00-1.758 0v5.605a.586.586 0 11-1.172 0V.88a.879.879 0 00-1.758 0v6.777a.586.586 0 11-1.172 0V2.051a.879.879 0 00-1.758 0v7.221l.728.728h1.03a4.107 4.107 0 014.102 4.102.586.586 0 11-1.172 0 2.933 2.933 0 00-2.93-2.93H7.595A.586.586 0 017.18 11L5.27 9.09c-.725-.726-1.934-.82-2.665-.1l-.015.015a.59.59 0 00-.035.785l5.313 6.277c.268.316.414.716.414 1.13v2.218c0 .324.263.586.586.586h7.031a.586.586 0 00.586-.586v-1.469c0-.739.2-1.458.542-2.113a5.54 5.54 0 00.63-2.574V3.223a.879.879 0 00-.879-.88z" fill="#C1CEEA"/></svg>