<svg width="20" height="20" fill="none" xmlns="http://www.w3.org/2000/svg"><g clip-path="url(#clip0)" fill="#C1CEEA"><path d="M5.273 0a.586.586 0 00-.585.586v4.102H3.516V.585a.586.586 0 10-1.172 0v4.102H1.172V.585A.586.586 0 100 .586v5.86c0 .969.789 1.796 1.758 1.796h2.344c.969 0 1.757-.827 1.757-1.797V.585A.586.586 0 005.273 0zm8.867 12.344V6.688a5.322 5.322 0 00-4.14-2 5.353 5.353 0 00-2.969.89v.867a2.988 2.988 0 01-1.758 2.72v3.2A5.32 5.32 0 0010 15.273a5.332 5.332 0 004.305-2.198 1.739 1.739 0 01-.164-.731z"/><path d="M15.898 14.102c-.272 0-.527-.068-.757-.179A6.508 6.508 0 0110 16.445a6.51 6.51 0 01-4.727-2.035v3.055A8.87 8.87 0 0010 18.828c2.55 0 4.879-1.132 6.484-2.867v-1.86h-.586zM10 1.172a8.983 8.983 0 00-2.969.51v2.536A6.575 6.575 0 0110 3.516a6.51 6.51 0 014.297 1.62 8.88 8.88 0 01.78-2.37A8.864 8.864 0 0010 1.171z"/><path d="M19.69.07a.587.587 0 00-.601.028c-2.672 1.782-3.776 4.085-3.776 6.595v5.65c0 .325.262.587.585.587h1.758v5.898a1.172 1.172 0 002.344 0V.586a.586.586 0 00-.31-.517zM1.758 9.414v9.414a1.172 1.172 0 102.344 0V9.414H1.758z"/></g><defs><clipPath id="clip0"><path fill="#fff" d="M0 0h20v20H0z"/></clipPath></defs></svg>