<svg width="20" height="20" fill="none" xmlns="http://www.w3.org/2000/svg"><g clip-path="url(#clip0)"><path d="M10.103 15.801a1.599 1.599 0 010 2.263L8.69 19.475a1.602 1.602 0 01-2.262 0L.525 13.571a1.602 1.602 0 010-2.263l1.41-1.41a1.599 1.599 0 012.264 0l5.904 5.903zm-9.34-.692a.32.32 0 00-.496.053 1.587 1.587 0 00.201 2.005l2.364 2.365a1.586 1.586 0 002.006.201.321.321 0 00.053-.496L.763 15.11zm10.31-8.36a.64.64 0 00-.905 0l-3.42 3.419a.64.64 0 000 .905l2.179 2.179a.64.64 0 00.905 0l3.42-3.42a.64.64 0 000-.905l-2.179-2.179zm8.165-1.858a.32.32 0 00.496-.054c.446-.684.3-1.503-.202-2.005L17.167.468a1.587 1.587 0 00-2.004-.202.32.32 0 00-.054.496l4.129 4.129zM13.57.525a1.602 1.602 0 00-2.263 0l-1.41 1.411a1.599 1.599 0 000 2.263l5.904 5.904a1.6 1.6 0 002.263 0l1.41-1.411a1.602 1.602 0 000-2.263L13.572.525z" fill="#C1CEEA"/></g><defs><clipPath id="clip0"><path fill="#fff" d="M0 0h20v20H0z"/></clipPath></defs></svg>