<svg width="216" height="44" viewBox="0 0 216 44" fill="none" xmlns="http://www.w3.org/2000/svg">
<path d="M71.68 19.38C71.2 18.8067 70.6333 18.36 69.98 18.04C69.34 17.7067 68.6933 17.54 68.04 17.54C67.2533 17.54 66.5333 17.7333 65.88 18.12C65.2267 18.5067 64.7133 19.0333 64.34 19.7C63.9667 20.3667 63.78 21.1067 63.78 21.92C63.78 22.7333 63.9667 23.48 64.34 24.16C64.7133 24.8267 65.2267 25.36 65.88 25.76C66.5333 26.1467 67.2533 26.34 68.04 26.34C68.6667 26.34 69.3 26.1933 69.94 25.9C70.5933 25.5933 71.1733 25.1867 71.68 24.68L73.54 26.7C72.7933 27.4733 71.9133 28.0867 70.9 28.54C69.9 28.9933 68.8933 29.22 67.88 29.22C66.5067 29.22 65.26 28.9067 64.14 28.28C63.02 27.64 62.14 26.7667 61.5 25.66C60.86 24.5533 60.54 23.32 60.54 21.96C60.54 20.6133 60.8667 19.3933 61.52 18.3C62.1733 17.2067 63.0667 16.3467 64.2 15.72C65.3467 15.0933 66.6133 14.78 68 14.78C69.0133 14.78 70.0133 14.9933 71 15.42C71.9867 15.8333 72.8267 16.4 73.52 17.12L71.68 19.38ZM86.0267 29L83.8067 25H83.5067H80.5867V29H77.4267V15H83.5067C85.3334 15 86.7467 15.4267 87.7467 16.28C88.7467 17.12 89.2467 18.3133 89.2467 19.86C89.2467 20.94 89.0201 21.8667 88.5667 22.64C88.1267 23.4 87.4801 23.98 86.6267 24.38L89.6067 29H86.0267ZM80.5867 22.36H83.5067C84.3867 22.36 85.0601 22.16 85.5267 21.76C86.0067 21.3467 86.2467 20.7467 86.2467 19.96C86.2467 19.1867 86.0067 18.6067 85.5267 18.22C85.0601 17.82 84.3867 17.62 83.5067 17.62H80.5867V22.36ZM93.8994 15H104.559V17.62H97.0594V20.66H103.799V23.28H97.0594V26.38H104.779V29H93.8994V15ZM126.339 15H129.599L124.859 29H121.599L118.659 18.9L115.679 29H112.439L107.719 15H111.119L114.159 25.68L117.179 15H120.279L123.339 25.68L126.339 15ZM133.134 15H143.794V17.62H136.294V20.66H143.034V23.28H136.294V26.38H144.014V29H133.134V15ZM161.701 14.78C163.101 14.78 164.374 15.0933 165.521 15.72C166.667 16.3467 167.567 17.2133 168.221 18.32C168.887 19.4133 169.221 20.6333 169.221 21.98C169.221 23.3267 168.887 24.5533 168.221 25.66C167.567 26.7667 166.667 27.64 165.521 28.28C164.374 28.9067 163.101 29.22 161.701 29.22C160.301 29.22 159.027 28.9067 157.881 28.28C156.734 27.64 155.827 26.7733 155.161 25.68C154.507 24.5733 154.181 23.34 154.181 21.98C154.181 20.6333 154.507 19.4133 155.161 18.32C155.827 17.2133 156.727 16.3467 157.861 15.72C159.007 15.0933 160.287 14.78 161.701 14.78ZM161.741 17.54C160.967 17.54 160.247 17.74 159.581 18.14C158.914 18.5267 158.387 19.06 158.001 19.74C157.614 20.42 157.421 21.1667 157.421 21.98C157.421 22.8067 157.614 23.56 158.001 24.24C158.401 24.92 158.927 25.46 159.581 25.86C160.247 26.26 160.967 26.46 161.741 26.46C162.514 26.46 163.221 26.2667 163.861 25.88C164.514 25.48 165.027 24.94 165.401 24.26C165.787 23.5667 165.981 22.8067 165.981 21.98C165.981 21.1667 165.787 20.42 165.401 19.74C165.027 19.06 164.514 18.5267 163.861 18.14C163.221 17.74 162.514 17.54 161.741 17.54ZM182.974 15H185.974V29H183.094L176.314 20V29H173.294V15H176.174L182.974 24.04V15ZM191.056 15H194.216V26.24H200.216V29H191.056V15ZM215.931 15L210.831 24.48V29H207.671V24.56L202.491 15H205.671L209.251 21.28L212.751 15H215.931Z" fill="#11161F"/>
<path d="M22.1835 4.53656C22.1835 7.03629 20.1928 9.07311 17.7496 9.07311C15.3064 9.07311 13.3157 7.03629 13.3157 4.53656C13.3157 2.03682 15.3064 0 17.7496 0C20.1928 0 22.1835 2.03682 22.1835 4.53656Z" fill="#97A7D1"/>
<path d="M35.5077 14.6511C26.4136 16.5028 19.1972 20.8773 13.9941 25.3676L16.8219 28.5385C18.5185 27.7284 20.4188 26.9415 22.6357 26.1314C37.9735 20.5301 36.8876 14.3734 35.5077 14.6511Z" fill="#97C9CE"/>
<path d="M39.4213 2.24509C20.5771 6.11042 13.1797 22.7753 13.1797 22.7753C18.7221 16.4334 21.7535 13.98 29.3997 11.2025C41.3441 6.85108 40.5071 2.03677 39.4213 2.24509Z" fill="#97C9CE"/>
<path d="M27.6805 36.4081C27.6805 36.4081 28.5853 38.6995 28.5853 39.1625C28.5853 39.6254 28.5853 40.5512 25.4409 38.2366C22.2964 35.9452 13.9715 27.4276 11.7319 24.2103C9.49234 20.9931 5.21678 14.79 4.76434 12.4755C4.3119 10.184 4.3119 8.33239 7.45636 9.25822C10.6008 10.184 11.9581 11.5728 11.9581 11.5728C11.9581 11.5728 8.36124 7.42971 3.85946 6.06411C-0.642328 4.67537 -1.16263 8.86474 2.07232 15.2529C6.34788 23.7706 12.6368 32.0336 20.283 38.0283C27.9293 43.9999 30.1689 43.9999 31.0738 43.9999C31.9786 43.9999 32.6573 42.3797 30.3951 39.6254C28.1329 36.871 27.6805 36.4081 27.6805 36.4081Z" fill="#97C9CE"/>
<path d="M1.8461 40.991C5.42038 36.8942 8.63271 33.6075 11.7546 31.3392L10.0353 29.233C4.65123 35.2045 1.8461 40.991 1.8461 40.991Z" fill="#97C9CE"/>
</svg>
