<svg width="216" height="44" fill="none" xmlns="http://www.w3.org/2000/svg"><path d="M71.68 19.38a5.158 5.158 0 00-1.7-1.34 4.162 4.162 0 00-4.1.08 4.172 4.172 0 00-1.54 1.58 4.466 4.466 0 00-.56 2.22c0 .813.187 1.56.56 2.24.373.667.887 1.2 1.54 1.6.653.387 1.373.58 2.16.58.627 0 1.26-.147 1.9-.44a6.118 6.118 0 001.74-1.22l1.86 2.02a8.395 8.395 0 01-2.64 1.84c-1 .453-2.007.68-3.02.68-1.373 0-2.62-.313-3.74-.94-1.12-.64-2-1.513-2.64-2.62-.64-1.107-.96-2.34-.96-3.7 0-1.347.327-2.567.98-3.66a7.02 7.02 0 012.68-2.58c1.147-.627 2.413-.94 3.8-.94 1.013 0 2.013.213 3 .64.987.413 1.827.98 2.52 1.7l-1.84 2.26zM86.027 29l-2.22-4h-3.22v4h-3.16V15h6.08c1.826 0 3.24.427 4.24 1.28 1 .84 1.5 2.033 1.5 3.58 0 1.08-.227 2.007-.68 2.78-.44.76-1.087 1.34-1.94 1.74l2.98 4.62h-3.58zm-5.44-6.64h2.92c.88 0 1.553-.2 2.02-.6.48-.413.72-1.013.72-1.8 0-.773-.24-1.353-.72-1.74-.467-.4-1.14-.6-2.02-.6h-2.92v4.74zM93.899 15h10.66v2.62h-7.5v3.04h6.74v2.62h-6.74v3.1h7.72V29h-10.88V15zm32.44 0h3.26l-4.74 14h-3.26l-2.94-10.1-2.98 10.1h-3.24l-4.72-14h3.4l3.04 10.68 3.02-10.68h3.1l3.06 10.68 3-10.68zm6.795 0h10.66v2.62h-7.5v3.04h6.74v2.62h-6.74v3.1h7.72V29h-10.88V15zm28.567-.22c1.4 0 2.673.313 3.82.94a6.946 6.946 0 012.7 2.6c.666 1.093 1 2.313 1 3.66s-.334 2.573-1 3.68a7.09 7.09 0 01-2.7 2.62c-1.147.627-2.42.94-3.82.94s-2.674-.313-3.82-.94a7.274 7.274 0 01-2.72-2.6c-.654-1.107-.98-2.34-.98-3.7 0-1.347.326-2.567.98-3.66a7.112 7.112 0 012.7-2.6c1.146-.627 2.426-.94 3.84-.94zm.04 2.76c-.774 0-1.494.2-2.16.6a4.227 4.227 0 00-1.58 1.6 4.45 4.45 0 00-.58 2.24c0 .827.193 1.58.58 2.26.4.68.926 1.22 1.58 1.62.666.4 1.386.6 2.16.6a4.02 4.02 0 002.12-.58c.653-.4 1.166-.94 1.54-1.62a4.61 4.61 0 00.58-2.28 4.46 4.46 0 00-.58-2.24 4.14 4.14 0 00-1.54-1.6c-.64-.4-1.347-.6-2.12-.6zM182.974 15h3v14h-2.88l-6.78-9v9h-3.02V15h2.88l6.8 9.04V15zm8.082 0h3.16v11.24h6V29h-9.16V15zm24.875 0l-5.1 9.48V29h-3.16v-4.44l-5.18-9.56h3.18l3.58 6.28 3.5-6.28h3.18z" fill="#11161F"/><path d="M22.183 4.537c0 2.5-1.99 4.536-4.433 4.536-2.444 0-4.434-2.037-4.434-4.536 0-2.5 1.99-4.537 4.434-4.537 2.443 0 4.433 2.037 4.433 4.537z" fill="#97A7D1"/><path d="M35.508 14.651c-9.094 1.852-16.31 6.226-21.514 10.717l2.828 3.17c1.697-.81 3.597-1.596 5.814-2.407 15.338-5.6 14.252-11.758 12.872-11.48zm3.913-12.406C20.577 6.11 13.18 22.775 13.18 22.775c5.542-6.342 8.573-8.795 16.22-11.572C41.344 6.85 40.507 2.037 39.42 2.245z" fill="#97C9CE"/><path d="M27.68 36.408s.905 2.291.905 2.755c0 .462 0 1.388-3.144-.926-3.145-2.292-11.47-10.81-13.71-14.027-2.239-3.217-6.514-9.42-6.967-11.735-.452-2.291-.452-4.143 2.692-3.217 3.145.926 4.502 2.315 4.502 2.315S8.361 7.43 3.86 6.064c-4.501-1.389-5.022 2.8-1.787 9.189 4.276 8.518 10.565 16.78 18.211 22.775C27.929 44 30.169 44 31.073 44c.906 0 1.584-1.62-.678-4.375-2.262-2.754-2.715-3.217-2.715-3.217zM1.846 40.991c3.574-4.097 6.787-7.383 9.909-9.652l-1.72-2.106c-5.384 5.972-8.189 11.758-8.189 11.758z" fill="#97C9CE"/></svg>